#define mute_width 8
#define mute_height 8
static unsigned char mute_bits[] = {
   0x20, 0xb0, 0x5c, 0x2c, 0x54, 0x28, 0x34, 0x22 };
