#define tralha_width 8
#define tralha_height 8
static unsigned char tralha_bits[] = {
   0x00, 0x24, 0x7e, 0x24, 0x24, 0x7e, 0x24, 0x00 };
